<svg id="Layer_1" data-name="Layer 1" xmlns="http://www.w3.org/2000/svg" viewBox="0 0 353.73 531.62"><defs><style>.cls-1{fill:#ffd62c;}.cls-2{fill:#6cc;}.cls-3{fill:#ffbc15;}.cls-4{fill:#317c7a;}</style></defs><title>2017bb-lightbulb2</title><path class="cls-1" d="M168.82,247.77c17.14,19.55,26.47,44,30.69,69.44,2.88,17.36,2.34,34.71,3.68,52.16.29,3.72.26,8.19,4.56,9.08,5,1,10.71.69,15.83.81,19.27.47,38.56.37,57.84.21,16-.13,32.24.33,48.18-1a8.77,8.77,0,0,0,6.76-4.82c2.32-5,2-11.2,2.31-16.56.54-9.81,1.21-19.61,2.55-29.35,3.86-28,13.26-55.65,31.17-77.9,32.11-39.89,46.78-94.48,30.72-144.08-8.28-25.58-24.45-48.83-46.54-64.34-26-18.22-58.22-25.08-89.58-23-24.06,1.57-47.39,7.74-68,20.52a137.63,137.63,0,0,0-52.66,61,144.2,144.2,0,0,0-9.58,85.48c2.2,11.06,7.9,21.56,13.25,31.37,4.93,9,10.27,17.88,15.86,26.54,1,1.5,1.94,3,2.94,4.48,2.44,3.62,11.36-4.29,8.63-8.34-9.66-14.35-18.76-29.44-25.76-45.27-10.48-23.69-9.69-52.46-2.9-77.09s21-47.39,41.15-63.28C207.92,39.6,229.1,31.9,251.67,29c30.24-3.88,62,.4,88.63,15.83,22.27,12.9,39.54,33.71,49.43,57.35a137.83,137.83,0,0,1-7.11,118.6c-4.2,7.38-8.26,15.7-13.47,22.42-8.17,10.52-16,20.95-21.81,33.23a177,177,0,0,0-12.78,37.89c-4,18.46-4.59,36.95-6.25,55.66-.09,1-.16,2.07-.35,3.08.15-.82-.95,2.44,0,.51l6.76-4.82c-13.08,1.13-26.4.81-39.51,1-19.55.22-39.1.32-58.65,0-6.7-.1-13.43-.17-20.12-.63-.91-.06-1.85-.24-2.76-.23s0,.14,0,0c-.07.42.07.4,0-.18,0-.3-.19-.61-.24-.91a22.93,22.93,0,0,1-.35-2.59c-1.44-16.64-.88-33.24-3.24-49.85-3.95-27.72-13.74-54.61-32.39-75.89C174.42,236,165.68,244.18,168.82,247.77Z" transform="translate(-95.71 -18)"/><path class="cls-2" d="M325.91,454.89h0l5-6.22c1.61-1.08,1.17-.33.1-.41a23.22,23.22,0,0,0-3.26.24q-5.56.38-11.13.71-17.14,1-34.3,1.65c-12.71.46-25.44.77-38.16.59-8.9-.13-18.73.21-27.39-2.23a13,13,0,0,1-2.91-1.15,10.34,10.34,0,0,1-3.8-3.48,5.51,5.51,0,0,1-.77-2.76q.2-1.32-.63.82a15.9,15.9,0,0,1,2.62-.74,48.59,48.59,0,0,1,7.94-.51c11.3-.28,22.61-.08,33.91,0,13.65.08,27.31.16,41-.1,9.77-.18,20,0,29.63-1.91,7.35-1.45,24.46-13,11-18.41-4.9-2-11.75-.5-16.84-.25-25,1.22-50,2.89-75,2.86-9,0-19,.45-27.75-1.89a13.19,13.19,0,0,1-3.14-1.21c-1.6-.9-3.62-2.57-4.28-4.37a5.32,5.32,0,0,1-.25-2.3q-1.66,2,.59.88a8.91,8.91,0,0,1,1.47-.4,52.92,52.92,0,0,1,8.46-.51c24.91-.55,49.83.37,74.74-.11,9.66-.19,19.84,0,29.35-1.94,8.21-1.7,23.88-15.9,8.4-19.06-10.83-2.22-22.55-2-33.54-2.37-18.85-.62-37.74-.6-56.58.29-9.58.45-19.15,1.15-28.68,2.21-1.75.19-3.59,2.29-4.69,3.51-.25.27-2.66,3.35-1.48,3.22,35.49-4,72-4,107.56-1.35a78.56,78.56,0,0,1,11.4,1.25c1.56.35,3.59.9,4.79,2.08a7,7,0,0,1,1.08,1.37c.74,1.14.61,1.12.4,1.35-.79.84-3.21.9-4.25,1.06-10.42,1.64-21.23,1.56-31.75,1.71-24.41.35-48.89-.76-73.29.12a28.28,28.28,0,0,0-9.53,1.5c-4.39,1.71-12.66,7.48-11.3,13.16,1.95,8.1,15.35,7.85,21.54,8.18,25,1.33,50.19-.47,75.13-1.78,8.78-.46,17.6-1.16,26.4-1.2,2.89,0,5.35.5,7.64,2.57.49.44,1.52,2.62,1.72,2.72l0,.47q2.3-2.5-.63-.76a4.57,4.57,0,0,0-.63.22,29.3,29.3,0,0,1-4.55.86c-10.62,1.47-21.52,1.43-32.22,1.57-13.68.17-27.37.07-41.05,0-10.48-.06-21-.3-31.47.14-3.76.16-7.25.56-10.67,2.37-4.24,2.25-11.58,8.05-8.82,13.59,3.41,6.83,14.86,6.59,21.19,7,11.9.75,23.86.61,35.78.37q31.5-.66,63-2.92c1.35-.1,3,0,4.19-.75.65-.44,6.54-6.11,5-6.22h0c-2.35-.16-6.83,6.69-6.17,6.73Z" transform="translate(-95.71 -18)"/><path class="cls-3" d="M255.34,346.15c.87-24.52.94-49.2-4.05-73.34-4-19.52-12.74-36.65-22-54.11-8.93-16.81-18-34.42-19.12-53.78a66,66,0,0,1,.71-14.23c.85-5.34,3.11-7.95,8.12-10.21,9.15-4.13,22.21-3.47,30.19,3.07,14,11.49-9.3,29.61-18.66,34.94-1.43.81-5.73,7.05-1.78,5.35a73.32,73.32,0,0,1,22.72-5.26c7-.59,16.51-.9,22.42,3.7,7,5.46,3.3,16.67-.86,22.78-6,8.86-17,14.11-27.46,10.39-2.2-.78-7.46,5.33-5.11,6.16,11.71,4.16,23.93-2.31,32.06-10.62,6.77-6.92,14.76-19.79,10.73-29.93-3.2-8.05-14.3-8.93-21.66-8.91a78.25,78.25,0,0,0-30.28,5.95l-1.78,5.35a82.54,82.54,0,0,0,20-16.18c4.78-5.26,10.13-12.24,10.24-19.71.14-8.89-8.89-13.32-16.43-15a35.8,35.8,0,0,0-29.53,6.79c-16.1,12.6-10.47,39-4.41,55.53,8,21.69,21.66,40.73,29.81,62.34,11.19,29.65,10.92,62.62,9.81,93.82-.06,1.69,3.1-.24,3.49-.53,1.37-1,2.78-2.6,2.84-4.36Z" transform="translate(-95.71 -18)"/><path class="cls-3" d="M292.2,344.8c-1.5-30.47-3.54-60.91-5.42-91.35-.83-13.45-2.35-27.73,2.55-40.63,2.39-6.3,7.37-15.72,14.59-17.16,6.32-1.26,12.44,3.16,16.21,7.8,3.34,4.11,7.54,12.07,2.65,16.49-4.54,4.11-11.95,5.65-17.54,7.74-1.68.63-5.76,6.2-1.83,6.23,5.69,0,32.6,2.11,22.88,14.19-6.44,8-20,9.65-28.18,3.62-2.67-2-8.37,3.93-5.93,5.73,12.06,8.93,30,3.61,38.82-7.63,3.37-4.31,5.72-10.49,2-15.32-5.53-7.12-18.1-7.18-26.08-7.24L305,233.5c10.4-3.89,27.56-8.71,26.63-22.91-.85-13-15.44-25.32-28.32-20.61-14.83,5.41-22.29,24.72-23.76,39.12-.88,8.65-.22,17.38.32,26,.63,10.06,1,20.13,1.76,30.18,1.61,20.88,2.74,41.82,3.76,62.74.2,4.08,6.91-.31,6.77-3.25Z" transform="translate(-95.71 -18)"/><path class="cls-4" d="M117.24,509v15c0,6.34-4.46,11.16-10.73,11.16s-10.8-4.83-10.8-11.16V484.67a.59.59,0,0,1,.65-.58H98.3a.59.59,0,0,1,.65.58v17.43a9.11,9.11,0,0,1,7.56-4.25C112.78,497.85,117.24,502.67,117.24,509Zm-3.17,0c0-4.68-3.1-8.06-7.56-8.06S99,504.33,99,509v15c0,4.68,3,8.06,7.56,8.06s7.56-3.38,7.56-8.06Z" transform="translate(-95.71 -18)"/><path class="cls-4" d="M124.29,524V509.08c0-6.48,4.18-11.16,10.73-11.16s10.73,4.75,10.73,10.87-4.18,10.44-11.23,10.44h-7V524c0,4.61,2.59,8.06,7.42,8.06,4.61,0,7.27-3.31,7.42-7.92a.59.59,0,0,1,.65-.58H145a.59.59,0,0,1,.65.58c-.22,6.41-4.25,10.95-10.66,10.95C128.33,535.07,124.29,530.46,124.29,524Zm10.23-7.85c5.26,0,8-3.1,8-7.34,0-4.46-2.88-7.85-7.49-7.85s-7.49,3.31-7.49,8.14v7.06Z" transform="translate(-95.71 -18)"/><path class="cls-4" d="M152.73,533.92V509.44a10.74,10.74,0,0,1,11.16-11.16h2.81a.65.65,0,0,1,.65.65v1.87a.59.59,0,0,1-.65.58H163.9c-4.68,0-7.92,3.1-7.92,8.06v24.48a.59.59,0,0,1-.65.58h-1.94A.59.59,0,0,1,152.73,533.92Z" transform="translate(-95.71 -18)"/><path class="cls-4" d="M193.56,524.63v9.29a.53.53,0,0,1-.58.58h-2a.53.53,0,0,1-.58-.58v-9.29c0-4.68-3-7.49-7.63-7.49h-6.41v16.78a.53.53,0,0,1-.58.58h-2a.53.53,0,0,1-.58-.58V484.67a.53.53,0,0,1,.58-.58h2a.53.53,0,0,1,.58.58V514h5.18l9-15.12a.79.79,0,0,1,.72-.43h2.3c.43,0,.65.29.43.72l-9.14,15.19A9.87,9.87,0,0,1,193.56,524.63Z" transform="translate(-95.71 -18)"/><path class="cls-4" d="M199.89,524V509.08c0-6.48,4.18-11.16,10.73-11.16s10.73,4.75,10.73,10.87-4.18,10.44-11.23,10.44h-7V524c0,4.61,2.59,8.06,7.42,8.06,4.61,0,7.27-3.31,7.42-7.92a.59.59,0,0,1,.65-.58h1.94a.59.59,0,0,1,.65.58c-.22,6.41-4.25,10.95-10.66,10.95C203.93,535.07,199.89,530.46,199.89,524Zm10.23-7.85c5.26,0,8-3.1,8-7.34,0-4.46-2.88-7.85-7.49-7.85s-7.49,3.31-7.49,8.14v7.06Z" transform="translate(-95.71 -18)"/><path class="cls-4" d="M229.27,533.92V484.67a.53.53,0,0,1,.58-.58h2a.53.53,0,0,1,.58.58v49.25a.53.53,0,0,1-.58.58h-2A.53.53,0,0,1,229.27,533.92Z" transform="translate(-95.71 -18)"/><path class="cls-4" d="M240.5,524V509.08c0-6.48,4.18-11.16,10.73-11.16S262,502.67,262,508.79s-4.18,10.44-11.23,10.44h-7V524c0,4.61,2.59,8.06,7.42,8.06,4.61,0,7.27-3.31,7.42-7.92a.59.59,0,0,1,.65-.58h1.94a.59.59,0,0,1,.65.58c-.22,6.41-4.25,10.95-10.66,10.95C244.53,535.07,240.5,530.46,240.5,524Zm10.23-7.85c5.26,0,8-3.1,8-7.34,0-4.46-2.88-7.85-7.49-7.85s-7.49,3.31-7.49,8.14v7.06Z" transform="translate(-95.71 -18)"/><path class="cls-4" d="M290.33,499.07v39.39c0,6.55-4.18,11.16-10.58,11.16-6.12,0-10.3-4.54-10.58-10.94a.59.59,0,0,1,.65-.58h1.94c.36,0,.65.14.65.58.14,4.75,2.81,7.85,7.34,7.85s7.34-3.24,7.34-8.07v-8.57a8.84,8.84,0,0,1-7.34,4.1c-6.41,0-10.58-4.75-10.58-11.23V499.07a.59.59,0,0,1,.65-.58h1.94a.59.59,0,0,1,.65.58v23.69c0,4.75,2.74,8.21,7.34,8.21s7.34-3.46,7.34-8.21V499.07a.59.59,0,0,1,.65-.58h1.94A.59.59,0,0,1,290.33,499.07Z" transform="translate(-95.71 -18)"/><path class="cls-4" d="M338.13,509v15c0,6.34-4.46,11.16-10.73,11.16s-10.8-4.83-10.8-11.16V484.67a.59.59,0,0,1,.65-.58h1.94a.59.59,0,0,1,.65.58v17.43a9.11,9.11,0,0,1,7.56-4.25C333.67,497.85,338.13,502.67,338.13,509ZM335,509c0-4.68-3.1-8.06-7.56-8.06s-7.56,3.38-7.56,8.06v15c0,4.68,3,8.06,7.56,8.06S335,528.66,335,524Z" transform="translate(-95.71 -18)"/><path class="cls-4" d="M347.71,498.49a.59.59,0,0,1,.65.58v24.7c0,5,2.52,8.35,7.2,8.35s7.2-3.38,7.2-8.35v-24.7a.59.59,0,0,1,.65-.58h1.94a.59.59,0,0,1,.65.58v24.7c0,6.55-4,11.38-10.44,11.38s-10.44-4.83-10.44-11.38v-24.7a.59.59,0,0,1,.65-.58Z" transform="translate(-95.71 -18)"/><path class="cls-4" d="M374.28,490.93a2.23,2.23,0,0,1,2.38-2.38,2.27,2.27,0,0,1,2.38,2.38,2.35,2.35,0,0,1-2.37,2.38A2.27,2.27,0,0,1,374.28,490.93Zm.79,43V499.07a.53.53,0,0,1,.58-.58h2a.53.53,0,0,1,.58.58v34.85a.53.53,0,0,1-.58.58h-2A.53.53,0,0,1,375.07,533.92Z" transform="translate(-95.71 -18)"/><path class="cls-4" d="M388,533.92V484.67a.53.53,0,0,1,.58-.58h2a.53.53,0,0,1,.58.58v49.25a.53.53,0,0,1-.58.58h-2A.53.53,0,0,1,388,533.92Z" transform="translate(-95.71 -18)"/><path class="cls-4" d="M420.79,484.67V524c0,6.34-4.46,11.16-10.8,11.16s-10.73-4.83-10.73-11.16V509c0-6.34,4.46-11.16,10.73-11.16a9.11,9.11,0,0,1,7.56,4.25V484.67a.59.59,0,0,1,.65-.58h1.95A.59.59,0,0,1,420.79,484.67ZM417.55,509c0-4.68-3-8.06-7.56-8.06s-7.56,3.38-7.56,8.06v15c0,4.68,3.1,8.06,7.56,8.06s7.56-3.38,7.56-8.06Z" transform="translate(-95.71 -18)"/><path class="cls-4" d="M428,524.2a.59.59,0,0,1,.65-.58h1.95c.36,0,.65.14.65.58.14,5.33,3,7.85,7.92,7.85,4.39,0,7.06-2.52,7.06-6.41,0-9.43-17.93-6.19-17.93-18.36,0-5.26,4.11-9.43,10.15-9.43,6.55,0,10.23,4,10.44,10.08a.59.59,0,0,1-.58.65h-2c-.36,0-.58-.22-.58-.65-.22-4.18-2.74-7-7.13-7-4.18,0-7.13,2.52-7.13,6.34,0,9.29,18,6,18,18.36,0,5.33-4.32,9.5-10.3,9.5C432.45,535.14,428.27,531,428,524.2Z" transform="translate(-95.71 -18)"/></svg>